<?xml version="1.0" standalone="no"?>
<!DOCTYPE svg PUBLIC "-//W3C//DTD SVG 20010904//EN"
 "http://www.w3.org/TR/2001/REC-SVG-20010904/DTD/svg10.dtd">
<svg version="1.0" xmlns="http://www.w3.org/2000/svg"
 width="306.000000pt" height="165.000000pt" viewBox="0 0 306.000000 165.000000"
 preserveAspectRatio="xMidYMid meet">

<g transform="translate(0.000000,165.000000) scale(0.100000,-0.100000)"
fill="#000000" stroke="none">
<path d="M1391 1599 c-295 -52 -545 -284 -622 -576 -29 -109 -29 -288 0 -397
70 -263 284 -483 546 -558 114 -32 316 -32 430 0 262 75 476 295 546 560 29
107 29 287 0 394 -70 266 -294 493 -556 563 -73 19 -270 28 -344 14z m-67
-483 c90 -38 156 -137 164 -248 l5 -68 -217 0 -216 0 0 -36 c0 -47 37 -112 75
-132 97 -50 215 -23 246 56 7 18 16 22 54 22 51 0 56 -10 29 -63 -40 -80 -105
-118 -211 -125 -159 -10 -260 69 -293 233 -41 201 83 375 268 375 34 0 77 -6
96 -14z m412 -92 l72 -106 73 102 c40 56 78 104 84 106 7 3 35 4 63 2 l51 -3
-104 -138 -104 -139 115 -158 c63 -87 114 -161 114 -164 0 -3 -28 -6 -62 -6
l-63 1 -83 125 -84 126 -84 -126 -84 -126 -60 0 c-33 0 -60 2 -60 3 0 2 50 73
110 158 61 85 108 159 106 166 -3 6 -48 70 -100 141 -53 71 -96 133 -96 136 0
3 28 6 63 6 l62 -1 71 -105z"/>
<path d="M1132 1019 c-35 -23 -72 -84 -72 -119 0 -19 6 -20 166 -20 l166 0 -7
28 c-11 44 -39 85 -75 109 -45 31 -131 32 -178 2z"/>
</g>
</svg>
